<svg xmlns="http://www.w3.org/2000/svg" width="240" height="240" viewBox="0 0 240 240">
  <!-- 小黑：张嘴唱 + 飘音符 -->
  <g fill="none" stroke="#1a1a1a" stroke-width="5" stroke-linecap="round" stroke-linejoin="round">
    <path d="M104 196 L100 226"/>
    <path d="M136 196 L140 226"/>
  </g>
  <path d="M120 38 C76 38 60 86 60 130 C60 178 84 200 120 200 C156 200 180 178 180 130 C180 86 164 38 120 38 Z"
        fill="#1a1a1a" stroke="#1a1a1a" stroke-width="2"/>
  <circle cx="100" cy="110" r="13" fill="#fff"/>
  <circle cx="140" cy="110" r="13" fill="#fff"/>
  <circle cx="103" cy="112" r="4.5" fill="#1a1a1a"/>
  <circle cx="143" cy="112" r="4.5" fill="#1a1a1a"/>
  <!-- 张嘴唱：白色椭圆 -->
  <ellipse cx="120" cy="152" rx="14" ry="18" fill="#fff"/>
  <!-- 飘出的音符（橙色，表示声音流出） -->
  <g stroke="#e8730c" stroke-width="4" fill="#e8730c" stroke-linecap="round">
    <path d="M196 56 L196 92" fill="none"/>
    <circle cx="190" cy="94" r="7"/>
    <path d="M196 56 C204 58 210 62 210 70" fill="none" stroke-width="4"/>
  </g>
  <g stroke="#e8730c" stroke-width="3.5" fill="#e8730c" stroke-linecap="round">
    <path d="M214 96 L214 122" fill="none"/>
    <circle cx="209" cy="124" r="5.5"/>
  </g>
</svg>
